# xmcd
#
# Track frame offsets:
# 150
# 11494
# 21495
# 30495
# 41533
# 51739
# 60017
# 71102
# 81468
# 90079
# 102079
# 110040
# 119205
# 129581
# 139539
# 148682
# 158040
# 167790
#
# Disc length: 2397 seconds
#
#
# Revision: 1
# Processed by: cddbd v1.5.1PL2 Copyright (c) Steve Scherf et al.
# Submitted via: FreeRIP 2.944 
#
DISCID=f9095b12
DTITLE=Johnny Cash - Country Boy
DYEAR=2004
DGENRE=Country
TTITLE0=Oh, Lonesome Me
TTITLE1=Rock Island Line
TTITLE2=Two Timin' Woman
TTITLE3=Wide Open Road
TTITLE4=Hey! Porter
TTITLE5=The Wreck Of The Old 97'
TTITLE6=Belshazar
TTITLE7=Straight A's In Love
TTITLE8=Country Boy
TTITLE9=Doin' My Time
TTITLE10=If The Good Lord's Willing
TTITLE11=Remember Me (I'm The One Who Loves You)
TTITLE12=I Was There When It Happened
TTITLE13=Born To Lose
TTITLE14=Life Goes On
TTITLE15=Blue Train
TTITLE16=It's Just About Time
TTITLE17=Goodnight Irene
EXTD=
EXTT0=
EXTT1=
EXTT2=
EXTT3=
EXTT4=
EXTT5=
EXTT6=
EXTT7=
EXTT8=
EXTT9=
EXTT10=
EXTT11=
EXTT12=
EXTT13=
EXTT14=
EXTT15=
EXTT16=
EXTT17=
PLAYORDER=
